<svg version="1.1" id="Layer_1" xmlns="http://www.w3.org/2000/svg" xmlns:xlink="http://www.w3.org/1999/xlink" x="0px" y="0px"
	 width="100%" viewBox="0 0 479 518" enable-background="new 0 0 479 518" xml:space="preserve">
<path fill="none" opacity="1.000000" stroke="none" 
	d="
M480.000000,189.000000 
	C480.000000,299.333313 480.000000,409.166626 480.000000,519.000000 
	C320.333405,519.000000 160.666794,519.000000 1.000145,519.000000 
	C1.000096,346.333435 1.000096,173.666870 1.000048,1.000237 
	C160.666519,1.000158 320.333038,1.000158 479.999786,1.000079 
	C480.000000,63.500000 480.000000,126.000000 480.000000,189.000000 
M233.004242,174.990921 
	C233.004242,174.990921 233.072098,174.954742 232.995560,174.172714 
	C233.026062,173.126419 233.056549,172.080124 233.647171,170.822601 
	C233.778671,170.251175 233.910187,169.679733 234.572159,168.954468 
	C234.657501,168.639648 234.742828,168.324829 234.960602,167.382202 
	C234.987732,166.955597 235.014877,166.529007 235.735168,165.805908 
	C236.529861,163.218048 237.324554,160.630203 238.823029,157.719315 
	C239.153992,155.474960 239.484955,153.230606 239.953674,150.341339 
	C240.006393,149.906601 240.059113,149.471878 240.640457,148.920410 
	C240.698395,148.252136 240.756348,147.583862 240.564102,146.560928 
	C240.564102,146.560928 240.201599,146.799591 240.248596,146.743851 
	C240.248596,146.743851 240.185165,146.770554 240.886612,146.269363 
	C240.871796,145.982376 240.856995,145.695389 241.505219,145.005264 
	C242.004471,136.360245 242.548233,127.717247 242.942764,119.067451 
	C242.988586,118.062935 242.207291,117.020699 241.974792,115.145096 
	C241.351639,111.749550 240.728470,108.354004 239.987930,104.119934 
	C238.592911,99.416901 237.197906,94.713867 235.983887,89.253014 
	C233.340988,84.140869 230.698105,79.028725 228.013351,73.994774 
	C228.013351,73.994774 228.086761,73.944992 228.007126,73.265923 
	C227.282349,72.174469 226.557556,71.083023 225.815842,69.299377 
	C218.229416,59.197392 209.641022,50.298775 198.933090,43.242096 
	C181.909622,32.023403 163.013733,26.633158 143.158981,25.259233 
	C128.862518,24.269938 114.398796,25.689413 100.010864,26.078016 
	C99.654129,26.087652 99.311226,26.608784 98.108643,26.993876 
	C95.726212,27.295658 93.343788,27.597441 90.225975,28.017218 
	C89.486015,28.070070 88.746056,28.122923 87.501495,28.024921 
	C87.332382,28.072060 87.163269,28.119196 86.142838,28.022923 
	C80.764069,29.078604 75.385307,30.134285 69.185760,31.012880 
	C66.441795,31.637453 63.697826,32.262024 60.119911,32.994617 
	C50.024899,35.542809 39.789928,37.647884 29.878792,40.778252 
	C21.832039,43.319767 18.489101,48.855816 20.067392,55.167892 
	C24.500257,72.896294 28.852814,90.581047 35.689732,107.683525 
	C44.077042,128.664291 54.306545,148.275696 68.960045,165.607498 
	C80.383743,179.119186 93.638451,189.966187 110.039680,197.580109 
	C110.357895,197.665054 110.676102,197.750015 111.705780,197.956619 
	C112.792534,198.340897 113.879288,198.725174 115.256927,199.805878 
	C119.157036,200.903610 123.057137,202.001328 127.355652,203.812988 
	C133.240967,204.481659 139.126266,205.150330 145.656403,205.963943 
	C146.093765,206.007248 146.531113,206.050537 147.385086,206.854858 
	C151.933487,206.596451 156.481873,206.338043 161.878006,205.972641 
	C163.583221,205.920212 165.288452,205.867798 167.857559,205.987411 
	C172.240067,205.265366 176.622574,204.543320 181.820602,203.968445 
	C183.877411,203.581299 185.934204,203.194168 188.716614,202.980515 
	C190.503830,202.004028 192.291046,201.027542 194.006226,200.008011 
	C194.006226,200.008011 194.049454,200.079941 194.802307,200.005829 
	C200.477798,193.312866 200.653305,190.663681 195.726227,183.266434 
	C195.726227,183.266434 195.376297,183.107956 195.013000,182.517761 
	C189.753403,178.615219 184.384293,179.849960 178.127075,182.023621 
	C173.731750,182.360870 169.285950,182.387054 164.950073,183.090683 
	C148.572937,185.748398 132.877655,183.296936 117.993782,176.410156 
	C100.364151,168.252930 87.262207,154.788361 77.059975,138.578949 
	C70.833580,128.686401 65.522141,118.217979 59.975452,107.257553 
	C58.330959,103.803123 56.686466,100.348686 54.985374,96.261047 
	C54.930443,95.843231 54.875507,95.425415 54.955349,94.500092 
	C54.673435,94.320709 54.391521,94.141335 54.002186,93.242409 
	C53.371742,91.813347 52.741299,90.384293 51.994938,88.307434 
	C51.937981,87.873932 51.881027,87.440430 51.998295,86.291275 
	C51.367168,84.846649 50.736042,83.402016 49.984276,81.153023 
	C49.987198,80.653313 50.194885,80.009254 49.960533,79.676811 
	C48.143719,77.099533 46.447063,74.654823 47.511112,71.106293 
	C47.925407,69.724640 47.482185,67.732025 46.731228,66.416275 
	C43.546844,60.836933 43.363796,60.545982 49.544479,58.986633 
	C59.821342,56.393845 70.177780,54.060818 80.585533,52.059586 
	C89.333992,50.377415 98.164444,48.716579 107.029175,48.149380 
	C117.486092,47.480312 128.019562,48.070137 138.518753,47.982403 
	C150.346252,47.883564 161.595581,50.364990 172.516953,54.831528 
	C200.073715,66.101463 214.628876,87.203430 218.994873,116.738411 
	C219.047699,117.494339 219.100510,118.250267 219.102982,119.602470 
	C219.462387,120.065842 219.821793,120.529221 220.011856,121.901352 
	C219.732483,127.936577 219.453125,133.971802 218.790253,140.768616 
	C218.756439,142.013748 218.722626,143.258865 218.698486,144.611542 
	C218.698486,144.611542 218.796188,144.657486 218.179916,144.954300 
	C217.747238,146.622223 217.314560,148.290131 216.261902,150.187271 
	C214.852692,149.762390 213.443497,149.337509 211.917099,148.431580 
	C211.727142,148.120132 211.449753,147.965317 210.996109,147.263229 
	C207.342178,143.812546 203.688263,140.361862 199.794830,136.287292 
	C188.726410,127.221611 178.054901,117.606453 166.478424,109.244110 
	C154.800903,100.808800 142.225281,93.616783 129.755539,85.221878 
	C125.850403,83.446106 121.945274,81.670334 117.766251,79.235832 
	C114.118217,77.493797 110.470184,75.751770 106.687477,73.232002 
	C100.943359,70.808815 94.819290,72.031677 91.977814,76.169250 
	C88.157501,81.732140 88.426254,86.157951 93.177086,91.698685 
	C100.110870,95.286743 107.259056,98.517853 113.938217,102.529808 
	C133.957809,114.554893 154.223160,126.248383 171.677536,142.056519 
	C173.841324,144.016220 176.641830,145.272888 179.417953,147.295990 
	C179.695114,147.505615 179.972290,147.715240 180.225800,148.518829 
	C180.786209,149.024567 181.346619,149.530304 182.124588,150.673813 
	C184.453156,152.907608 186.781723,155.141403 189.272217,157.734512 
	C189.272217,157.734512 189.632782,157.893631 189.943405,158.411469 
	C191.627075,159.983902 193.310745,161.556335 195.218033,163.759171 
	C205.663284,175.109726 214.720306,187.454575 222.003494,201.857895 
	C223.968048,206.918884 225.932602,211.979889 228.002258,217.910461 
	C228.334274,222.141022 228.794479,226.366196 228.972549,230.603226 
	C229.388153,240.491852 229.715393,250.384964 229.965439,260.279114 
	C230.019211,262.406128 230.166229,265.002808 226.457611,263.262695 
	C225.212509,262.678467 223.514755,263.008728 222.023788,263.006714 
	C211.035263,262.991760 200.046692,262.998535 189.058136,262.998505 
	C161.420258,262.998444 133.779282,262.780701 106.147011,263.174347 
	C100.330147,263.257233 92.809990,262.256836 90.122726,271.376282 
	C90.145508,274.920441 90.168289,278.464630 90.048004,282.797638 
	C90.096222,283.862122 90.144432,284.926575 90.018082,286.915100 
	C90.067497,301.945953 90.116913,316.976837 90.019547,332.841736 
	C89.999542,343.372864 92.652802,345.027191 111.985077,346.265350 
	C113.714005,354.607910 115.385368,363.101135 117.244789,371.552979 
	C120.771194,387.581909 124.454178,403.576355 127.981956,419.605011 
	C132.027359,437.985474 136.291702,456.327148 139.811050,474.809448 
	C141.247192,482.351562 145.846207,485.106262 152.995499,485.086700 
	C211.956985,484.925446 270.919067,484.993195 329.880981,484.992279 
	C336.623260,484.992188 340.566040,481.796356 341.988312,475.021179 
	C346.684326,452.651367 351.205597,430.243866 356.064117,407.909607 
	C359.821014,390.639679 364.002441,373.462280 367.948181,356.233002 
	C368.665527,353.100647 368.119049,348.548615 370.018616,347.108002 
	C372.309662,345.370483 376.584442,346.110687 380.006409,346.031158 
	C387.144226,345.865204 392.165253,340.038818 392.086212,333.668213 
	C391.848541,314.516876 392.013977,295.360687 391.995026,276.206390 
	C391.987244,268.336731 387.871613,264.129517 379.942566,263.402466 
	C379.596130,263.588470 379.249695,263.774506 377.980164,264.026947 
	C368.015289,264.007416 358.050446,263.987854 347.943573,263.440338 
	C347.632050,263.343170 347.320496,263.245972 346.082947,262.986633 
	C314.739777,262.954498 283.396606,262.922394 251.995438,262.028564 
	C251.928726,258.950897 251.862030,255.873230 252.271774,252.174133 
	C253.546127,247.136169 254.820480,242.098206 256.016083,237.012543 
	C256.016083,237.012543 256.058350,237.094345 256.586578,236.948166 
	C256.666351,236.635239 256.746094,236.322327 256.953064,235.371399 
	C256.978333,234.938705 257.003601,234.506027 257.548248,233.931519 
	C257.637146,233.624619 257.726044,233.317734 257.973816,232.253906 
	C258.543976,230.773117 258.798279,229.042709 259.737854,227.853882 
	C264.303162,222.077545 268.447357,215.771088 273.870605,210.914017 
	C283.161774,202.592880 293.104034,194.955780 303.120819,187.498795 
	C315.368744,178.380814 329.046265,171.727921 343.147125,165.980835 
	C354.766449,161.245148 366.456055,156.681824 378.896118,152.011627 
	C381.618317,150.689697 384.340515,149.367752 387.000092,148.003418 
	C387.000092,148.003418 387.047241,148.062698 387.756592,147.761307 
	C390.741180,143.048370 391.099640,138.325104 387.663269,133.327408 
	C387.663269,133.327408 387.400421,133.183273 387.038300,132.629028 
	C383.708435,128.641052 379.641846,127.912682 374.312958,130.016602 
	C373.879639,130.076630 373.446320,130.136642 372.250458,130.017075 
	C368.153412,131.642517 364.056335,133.267960 359.301819,135.027847 
	C358.534149,135.419891 357.766479,135.811935 356.502289,136.031616 
	C356.333008,136.076828 356.163696,136.122025 355.239807,136.011627 
	C350.789124,137.990280 346.338409,139.968933 341.122345,141.996780 
	C323.314056,149.530258 305.684540,157.403671 289.328430,169.004303 
	C288.179199,169.236847 287.029999,169.469406 285.935516,169.394730 
	C285.859039,169.202927 285.812500,169.004150 286.268860,168.177567 
	C287.116119,164.448288 287.963379,160.718994 288.963989,156.554443 
	C288.963989,156.554443 289.040131,156.099258 289.730164,155.813812 
	C290.092926,154.205933 290.455658,152.598068 290.957733,150.211395 
	C292.630493,147.114166 294.706238,144.163620 295.897522,140.891113 
	C298.995270,132.381104 305.151947,126.375999 311.955414,121.066696 
	C325.238190,110.701027 340.944092,107.208199 357.329529,107.130318 
	C369.292114,107.073463 381.359436,107.595139 393.201660,109.186646 
	C407.594879,111.120995 421.800659,114.450005 435.803589,117.121498 
	C435.975830,120.371613 436.071838,122.183678 435.834076,124.695877 
	C435.349091,125.826134 434.805389,126.935204 434.388702,128.090103 
	C431.882080,135.037674 429.404633,141.995743 426.988892,148.994629 
	C426.988892,148.994629 426.948853,148.920593 426.282410,149.187317 
	C425.496094,151.109299 424.709808,153.031296 423.993347,154.994827 
	C423.993347,154.994827 423.951080,154.925461 423.287842,155.209885 
	C420.830231,159.789078 418.372650,164.368271 415.989899,168.992294 
	C415.989899,168.992294 415.945648,168.917114 415.295227,169.169022 
	C414.163330,171.099945 413.031433,173.030869 411.256775,175.201492 
	C409.106323,178.031967 407.133362,181.020462 404.777039,183.667740 
	C387.087769,203.541534 364.892822,213.982132 338.289124,213.858093 
	C324.696564,213.794754 311.304749,211.455078 298.546936,206.114136 
	C292.821045,203.717041 287.269592,206.221054 284.928223,211.631287 
	C282.364380,217.555679 283.182831,222.858871 289.006561,225.958054 
	C297.733673,230.602310 307.087891,233.297119 317.333466,234.851471 
	C321.225677,235.169724 325.117920,235.487976 329.796875,235.959045 
	C330.861267,235.908524 331.925629,235.858017 333.504456,235.985321 
	C334.038574,235.925262 334.572662,235.865204 335.871399,235.954117 
	C338.577789,235.907196 341.284210,235.860275 344.499634,235.979538 
	C344.669586,235.924896 344.839508,235.870270 345.798676,235.953156 
	C346.862549,235.907471 347.926453,235.861786 349.841949,235.987946 
	C354.231354,235.260345 358.620789,234.532745 363.497925,233.938843 
	C363.662018,233.900192 363.826080,233.861557 364.681946,233.851486 
	C365.801392,233.268585 366.920837,232.685684 368.686737,231.967682 
	C369.120911,231.909363 369.555115,231.851044 370.705566,231.973541 
	C372.149536,231.347946 373.593536,230.722336 375.799652,229.978638 
	C388.205505,225.574203 399.507812,219.043045 409.120941,210.204056 
	C430.347382,190.686996 445.913269,167.495255 453.062744,139.138763 
	C454.972107,131.565765 457.632599,124.185226 459.705200,116.649483 
	C462.036774,108.172241 460.761169,104.515282 454.737854,101.244003 
	C452.508179,100.468811 450.278503,99.693626 448.004639,98.989052 
	C448.004639,98.989052 448.077881,98.949371 447.761780,98.236221 
	C443.838562,97.218277 439.915314,96.200340 435.271637,94.837944 
	C424.290466,92.555901 413.373108,89.875977 402.310455,88.102089 
	C390.913849,86.274673 379.375275,84.285439 367.899719,84.290909 
	C356.274902,84.296440 344.559845,86.124603 333.047699,88.104477 
	C313.994507,91.381264 298.610382,101.393303 285.331299,116.116753 
	C283.189728,119.391602 281.048126,122.666443 278.984772,125.986801 
	C278.984772,125.986801 278.943420,125.906296 278.418945,126.054535 
	C278.336853,126.365799 278.254730,126.677071 277.922791,127.626312 
	C277.247314,128.738968 276.571869,129.851624 275.307068,131.158432 
	C275.173523,131.752594 275.039978,132.346756 274.985748,132.990982 
	C274.985748,132.990982 274.938599,132.909897 274.264282,133.195908 
	C271.573486,140.467224 268.882721,147.738556 266.041626,155.653549 
	C265.991669,156.089951 265.941711,156.526352 265.166382,157.310287 
	C264.508362,161.543457 263.850342,165.776642 263.025482,170.849884 
	C262.683411,172.565369 262.260742,174.269302 262.013153,175.998322 
	C260.897522,183.789352 263.338409,192.606506 254.625946,198.086914 
	C251.969452,199.757919 250.296524,202.992554 247.426407,206.396774 
	C246.033020,202.020767 245.067978,198.990036 244.006958,195.198318 
	C242.356628,191.770905 240.706314,188.343491 239.013855,184.994781 
	C239.013855,184.994781 239.087677,184.944565 239.006790,184.276657 
	C238.615387,183.514847 238.223969,182.753036 237.820984,181.306885 
	C236.582153,179.524475 235.343323,177.742065 233.941345,175.445984 
	C233.641037,175.271683 233.340729,175.097366 233.004242,174.990921 
z"/>
<path fill="#FEFEFE" opacity="1.000000" stroke="none" 
	d="
M98.961868,26.891356 
	C99.311226,26.608784 99.654129,26.087652 100.010864,26.078016 
	C114.398796,25.689413 128.862518,24.269938 143.158981,25.259233 
	C163.013733,26.633158 181.909622,32.023403 198.933090,43.242096 
	C209.641022,50.298775 218.229416,59.197392 225.544159,69.691940 
	C226.210587,71.371330 227.148666,72.658157 228.086761,73.944992 
	C228.086761,73.944992 228.013351,73.994774 228.016968,74.365562 
	C229.247177,77.649460 230.331421,80.633926 231.744995,83.453285 
	C232.892502,85.741974 234.435364,87.832458 235.802887,90.010834 
	C237.197906,94.713867 238.592911,99.416901 239.744751,104.785194 
	C239.985764,108.967323 240.469940,112.484200 240.961151,116.469437 
	C240.651154,124.167046 240.247147,131.394135 240.068542,138.626801 
	C240.012909,140.879593 240.567139,143.147461 240.842178,145.408417 
	C240.856995,145.695389 240.871796,145.982376 240.561646,146.223297 
	C240.168121,146.050095 240.099533,145.922989 240.030960,145.795868 
	C240.087830,146.130447 240.144714,146.465012 240.201599,146.799591 
	C240.201599,146.799591 240.564102,146.560928 240.360886,146.807800 
	C240.142380,147.715500 240.127090,148.376328 240.111816,149.037140 
	C240.059113,149.471878 240.006393,149.906601 239.539429,150.743332 
	C238.403702,153.429611 237.682205,155.713898 236.690384,158.251953 
	C235.960724,161.037964 235.501373,163.570175 235.042023,166.102402 
	C235.014877,166.529007 234.987732,166.955597 234.701355,167.830109 
	C234.199707,168.502228 234.066223,168.778992 234.041687,169.108307 
	C233.910187,169.679733 233.778671,170.251175 233.011475,170.974518 
	C230.285995,172.824844 230.141220,174.169510 233.072098,174.954742 
	C233.072098,174.954742 233.004242,174.990921 233.121307,175.200043 
	C233.527084,175.592682 233.815781,175.776169 234.104477,175.959656 
	C235.343323,177.742065 236.582153,179.524475 237.521454,181.706573 
	C237.843857,183.052353 238.465759,183.998459 239.087677,184.944565 
	C239.087677,184.944565 239.013855,184.994781 239.018539,185.360596 
	C240.716461,189.137360 242.409714,192.548325 244.102951,195.959290 
	C245.067978,198.990036 246.033020,202.020767 247.426407,206.396774 
	C250.296524,202.992554 251.969452,199.757919 254.625946,198.086914 
	C263.338409,192.606506 260.897522,183.789352 262.013153,175.998322 
	C262.260742,174.269302 262.683411,172.565369 263.461914,170.350403 
	C267.022247,165.935257 266.643921,161.477921 265.891785,156.962753 
	C265.941711,156.526352 265.991669,156.089951 266.439880,155.271973 
	C267.990509,152.376541 269.331909,149.929825 270.254150,147.334183 
	C271.946045,142.572433 273.390808,137.722855 274.938599,132.909897 
	C274.938599,132.909897 274.985748,132.990982 275.251282,132.952591 
	C275.643341,132.264221 275.769867,131.614243 275.896362,130.964279 
	C276.571869,129.851624 277.247314,128.738968 278.238098,127.176132 
	C278.788544,126.502792 278.918579,126.229576 278.943420,125.906296 
	C278.943420,125.906296 278.984772,125.986801 279.301514,125.949387 
	C283.264435,123.519699 286.123779,120.629379 285.990845,115.844910 
	C298.610382,101.393303 313.994507,91.381264 333.047699,88.104477 
	C344.559845,86.124603 356.274902,84.296440 367.899719,84.290909 
	C379.375275,84.285439 390.913849,86.274673 402.310455,88.102089 
	C413.373108,89.875977 424.290466,92.555901 435.708008,95.355026 
	C440.122223,96.897865 444.100037,97.923622 448.077881,98.949371 
	C448.077881,98.949371 448.004639,98.989052 448.060303,99.305817 
	C450.422455,100.384491 452.728943,101.146408 455.035461,101.908333 
	C460.761169,104.515282 462.036774,108.172241 459.705200,116.649483 
	C457.632599,124.185226 454.972107,131.565765 453.062744,139.138763 
	C445.913269,167.495255 430.347382,190.686996 409.120941,210.204056 
	C399.507812,219.043045 388.205505,225.574203 375.232788,229.774170 
	C373.107056,230.310699 371.548157,231.051712 369.989288,231.792709 
	C369.555115,231.851044 369.120911,231.909363 368.173981,231.762390 
	C366.437531,232.312363 365.213867,233.067642 363.990173,233.822906 
	C363.826080,233.861557 363.662018,233.900192 363.148956,233.497894 
	C357.167419,230.812332 352.988159,231.647339 348.990326,235.816101 
	C347.926453,235.861786 346.862549,235.907471 345.385773,235.649292 
	C344.814758,235.102081 344.656677,234.858719 344.498566,234.615356 
	C344.329254,235.014694 344.159912,235.414017 343.990601,235.813354 
	C341.284210,235.860275 338.577789,235.907196 335.417419,235.562775 
	C334.305603,235.383453 333.647827,235.595474 332.990021,235.807495 
	C331.925629,235.858017 330.861267,235.908524 329.302765,235.515381 
	C324.859619,234.751480 320.910553,234.431244 316.961517,234.111023 
	C307.087891,233.297119 297.733673,230.602310 289.006561,225.958054 
	C283.182831,222.858871 282.364380,217.555679 284.928223,211.631287 
	C287.269592,206.221054 292.821045,203.717041 298.546936,206.114136 
	C311.304749,211.455078 324.696564,213.794754 338.289124,213.858093 
	C364.892822,213.982132 387.087769,203.541534 404.777039,183.667740 
	C407.133362,181.020462 409.106323,178.031967 411.942474,175.058472 
	C413.734009,172.916000 414.839844,170.916565 415.945679,168.917114 
	C415.945648,168.917114 415.989899,168.992294 416.336853,168.980530 
	C421.900970,165.733917 423.456879,160.604401 423.951080,154.925461 
	C423.951080,154.925461 423.993347,154.994827 424.341003,154.944885 
	C425.442078,152.903503 426.195465,150.912048 426.948853,148.920593 
	C426.948853,148.920593 426.988892,148.994629 427.316101,148.952606 
	C428.091217,148.722977 428.821106,148.646790 428.945679,148.331451 
	C431.955902,140.712646 434.918915,133.074783 437.776306,125.397858 
	C437.863892,125.162621 436.731506,124.473335 436.167877,123.995743 
	C436.071838,122.183678 435.975830,120.371613 435.803589,117.121498 
	C421.800659,114.450005 407.594879,111.120995 393.201660,109.186646 
	C381.359436,107.595139 369.292114,107.073463 357.329529,107.130318 
	C340.944092,107.208199 325.238190,110.701027 311.955414,121.066696 
	C305.151947,126.375999 298.995270,132.381104 295.897522,140.891113 
	C294.706238,144.163620 292.630493,147.114166 290.527740,150.691101 
	C289.745209,152.813629 289.392670,154.456436 289.040131,156.099258 
	C289.040131,156.099258 288.963989,156.554443 288.552094,156.842499 
	C285.460602,160.638458 284.402100,164.472061 285.795898,168.798370 
	C285.812500,169.004150 285.859039,169.202927 285.538269,169.694153 
	C284.473114,171.456619 283.805206,172.919662 283.137299,174.382721 
	C283.742981,174.777267 284.348633,175.171814 284.954315,175.566360 
	C286.623077,173.344543 288.291870,171.122711 289.960632,168.900894 
	C305.684540,157.403671 323.314056,149.530258 341.826538,142.105988 
	C347.021271,140.480331 351.511871,138.745453 356.207092,136.928131 
	C356.679504,136.697693 356.875183,136.483795 356.998840,136.203979 
	C357.766479,135.811935 358.534149,135.419891 359.838898,135.248169 
	C364.588318,133.711227 368.800659,131.953949 373.013000,130.196671 
	C373.446320,130.136642 373.879639,130.076630 374.888824,130.267059 
	C379.443268,131.406097 383.421844,132.294693 387.400421,133.183289 
	C387.400421,133.183273 387.663269,133.327408 387.524109,133.821106 
	C387.272400,138.897446 387.159821,143.480072 387.047241,148.062698 
	C387.047241,148.062698 387.000092,148.003418 386.629211,148.008514 
	C383.386200,148.826782 380.514130,149.639954 377.642029,150.453110 
	C377.799500,150.982773 377.957001,151.512436 378.114502,152.042099 
	C366.456055,156.681824 354.766449,161.245148 343.147125,165.980835 
	C329.046265,171.727921 315.368744,178.380814 303.120819,187.498795 
	C293.104034,194.955780 283.161774,202.592880 273.870605,210.914017 
	C268.447357,215.771088 264.303162,222.077545 259.737854,227.853882 
	C258.798279,229.042709 258.543976,230.773117 257.701324,232.758362 
	C257.187195,233.479523 257.053864,233.749695 257.028870,234.073334 
	C257.003601,234.506027 256.978333,234.938705 256.699402,235.822479 
	C256.207977,236.495850 256.078827,236.769455 256.058350,237.094345 
	C256.058350,237.094345 256.016083,237.012543 255.694824,237.072021 
	C250.708405,241.559631 251.618912,247.261444 251.795319,252.795563 
	C251.862030,255.873230 251.928726,258.950897 251.858765,262.728882 
	C251.030304,266.437897 253.452682,264.925293 254.261871,264.927673 
	C283.620728,265.014252 312.979889,265.014069 342.338867,264.955078 
	C343.893494,264.951965 345.446899,264.332520 347.272217,263.997742 
	C347.724243,263.986389 347.904907,263.977356 348.085571,263.968323 
	C358.050446,263.987854 368.015289,264.007416 378.743347,264.009216 
	C379.707214,263.979340 379.907898,263.967194 380.108612,263.955048 
	C387.871613,264.129517 391.987244,268.336731 391.995026,276.206390 
	C392.013977,295.360687 391.848541,314.516876 392.086212,333.668213 
	C392.165253,340.038818 387.144226,345.865204 380.006409,346.031158 
	C376.584442,346.110687 372.309662,345.370483 370.018616,347.108002 
	C368.119049,348.548615 368.665527,353.100647 367.948181,356.233002 
	C364.002441,373.462280 359.821014,390.639679 356.064117,407.909607 
	C351.205597,430.243866 346.684326,452.651367 341.988312,475.021179 
	C340.566040,481.796356 336.623260,484.992188 329.880981,484.992279 
	C270.919067,484.993195 211.956985,484.925446 152.995499,485.086700 
	C145.846207,485.106262 141.247192,482.351562 139.811050,474.809448 
	C136.291702,456.327148 132.027359,437.985474 127.981956,419.605011 
	C124.454178,403.576355 120.771194,387.581909 117.244789,371.552979 
	C115.385368,363.101135 113.714005,354.607910 111.985077,346.265350 
	C92.652802,345.027191 89.999542,343.372864 90.452995,332.330994 
	C91.251007,331.136780 91.930229,330.454834 91.933662,329.769501 
	C92.001640,316.184937 92.029808,302.599609 91.919144,289.015656 
	C91.910896,288.002808 90.794106,286.999054 90.192657,285.991058 
	C90.144432,284.926575 90.096222,283.862122 90.492279,282.299072 
	C90.916092,278.187378 90.895630,274.574188 90.875175,270.961029 
	C92.809990,262.256836 100.330147,263.257233 106.147011,263.174347 
	C133.779282,262.780701 161.420258,262.998444 189.058136,262.998505 
	C200.046692,262.998535 211.035263,262.991760 222.023788,263.006714 
	C223.514755,263.008728 225.212509,262.678467 226.457611,263.262695 
	C230.166229,265.002808 230.019211,262.406128 229.965439,260.279114 
	C229.715393,250.384964 229.388153,240.491852 228.972549,230.603226 
	C228.794479,226.366196 228.334274,222.141022 228.206955,217.309540 
	C226.911423,211.465485 225.425858,206.217880 223.834488,201.002563 
	C223.790359,200.857910 222.611694,201.059448 221.962051,201.099548 
	C214.720306,187.454575 205.663284,175.109726 195.107895,163.059753 
	C194.278656,159.587173 193.452042,156.943161 189.632782,157.893631 
	C189.632782,157.893631 189.272217,157.734512 189.399994,157.244843 
	C188.442032,152.865784 186.130005,150.367218 181.907013,150.036057 
	C181.346619,149.530304 180.786209,149.024567 180.375168,147.808228 
	C180.065460,147.016846 179.606384,146.936081 179.147308,146.855316 
	C176.641830,145.272888 173.841324,144.016220 171.677536,142.056519 
	C154.223160,126.248383 133.957809,114.554893 113.938217,102.529808 
	C107.259056,98.517853 100.110870,95.286743 93.329269,91.331795 
	C93.377258,90.082268 93.493736,89.095360 93.133759,88.333595 
	C90.393776,82.535255 90.909882,78.207603 96.298187,75.193382 
	C99.138176,73.604698 103.272331,74.329514 106.822151,74.009735 
	C110.470184,75.751770 114.118217,77.493797 117.940636,79.918823 
	C120.385063,82.055962 122.552246,83.723320 124.962807,84.886162 
	C126.466217,85.611397 128.337143,85.574783 130.043137,85.880058 
	C142.225281,93.616783 154.800903,100.808800 166.478424,109.244110 
	C178.054901,117.606453 188.726410,127.221611 199.933365,136.950058 
	C203.742920,141.064255 207.413925,144.515671 211.084946,147.967102 
	C211.449753,147.965317 211.727142,148.120132 211.969604,149.048019 
	C213.432617,151.563126 214.843109,153.461777 216.253601,155.360428 
	C216.826569,155.064865 217.399536,154.769287 217.972504,154.473709 
	C217.608963,152.968491 217.245422,151.463272 216.881897,149.958054 
	C217.314560,148.290131 217.747238,146.622223 218.535767,144.480804 
	C218.938263,143.852921 218.984909,143.698547 219.031555,143.544159 
	C218.957642,143.577240 218.828445,143.598923 218.818863,143.645294 
	C218.760422,143.928406 218.729156,144.217148 218.688812,144.503998 
	C218.722626,143.258865 218.756439,142.013748 219.353333,140.287354 
	C220.610443,135.526199 221.580658,131.265106 221.873550,126.957939 
	C222.005539,125.016830 220.786987,122.983871 220.181198,120.992592 
	C219.821793,120.529221 219.462387,120.065842 219.446091,119.246307 
	C219.577484,117.924660 219.365753,116.959167 219.154022,115.993675 
	C214.628876,87.203430 200.073715,66.101463 172.516953,54.831528 
	C161.595581,50.364990 150.346252,47.883564 138.518753,47.982403 
	C128.019562,48.070137 117.486092,47.480312 107.029175,48.149380 
	C98.164444,48.716579 89.333992,50.377415 80.585533,52.059586 
	C70.177780,54.060818 59.821342,56.393845 49.544479,58.986633 
	C43.363796,60.545982 43.546844,60.836933 46.731228,66.416275 
	C47.482185,67.732025 47.925407,69.724640 47.511112,71.106293 
	C46.447063,74.654823 48.143719,77.099533 49.960533,79.676811 
	C50.194885,80.009254 49.987198,80.653313 49.762817,81.765823 
	C48.459667,84.830177 49.025143,86.469330 51.824074,87.006927 
	C51.881027,87.440430 51.937981,87.873932 51.791893,88.817444 
	C52.057262,90.885788 52.525673,92.444115 53.139450,94.239288 
	C53.796738,94.653290 54.308655,94.830444 54.820576,95.007599 
	C54.875507,95.425415 54.930443,95.843231 54.978401,96.917953 
	C54.825523,101.864983 56.296715,105.406746 59.799759,108.008209 
	C65.522141,118.217979 70.833580,128.686401 77.059975,138.578949 
	C87.262207,154.788361 100.364151,168.252930 117.993782,176.410156 
	C132.877655,183.296936 148.572937,185.748398 164.950073,183.090683 
	C169.285950,182.387054 173.731750,182.360870 178.642548,182.447968 
	C180.302994,183.115005 181.825668,183.949417 182.529068,183.500397 
	C186.021667,181.270844 189.237747,181.504288 192.663788,183.569168 
	C193.259064,183.927933 194.456818,183.287094 195.376297,183.107956 
	C195.376297,183.107956 195.726227,183.266434 195.585342,183.776306 
	C195.425552,185.074753 195.066269,186.130249 195.441986,186.609344 
	C198.247757,190.187012 197.106857,193.491394 195.096664,196.882431 
	C194.538361,197.824219 194.387329,199.007477 194.049454,200.079941 
	C194.049454,200.079941 194.006226,200.008011 193.644394,200.013214 
	C191.518707,200.947968 189.754852,201.877487 187.991013,202.807007 
	C185.934204,203.194168 183.877411,203.581299 181.319138,203.533844 
	C175.585098,200.825836 171.333115,203.543198 166.993668,205.815384 
	C165.288452,205.867798 163.583221,205.920212 161.174408,205.713226 
	C155.970016,205.667145 151.469254,205.880493 146.968475,206.093842 
	C146.531113,206.050537 146.093765,206.007248 145.236008,205.527924 
	C138.876190,204.065125 132.936768,203.038361 126.669373,201.838028 
	C122.549599,200.812790 118.757820,199.961121 114.966034,199.109467 
	C113.879288,198.725174 112.792534,198.340897 111.215485,197.702789 
	C110.505997,197.199570 110.230789,197.063217 109.899574,197.039902 
	C93.638451,189.966187 80.383743,179.119186 68.960045,165.607498 
	C54.306545,148.275696 44.077042,128.664291 35.689732,107.683525 
	C28.852814,90.581047 24.500257,72.896294 20.067392,55.167892 
	C18.489101,48.855816 21.832039,43.319767 29.878792,40.778252 
	C39.789928,37.647884 50.024899,35.542809 60.788498,33.242153 
	C64.671387,34.078129 68.013451,35.141521 70.006538,31.189964 
	C75.385307,30.134285 80.764069,29.078604 86.587364,28.330826 
	C87.187225,28.885414 87.342560,29.132097 87.497894,29.378782 
	C87.667297,28.977779 87.836700,28.576778 88.006096,28.175776 
	C88.746056,28.122923 89.486015,28.070070 90.765717,28.295958 
	C94.477814,30.834538 97.285553,31.436001 98.961868,26.891356 
M157.730820,323.695801 
	C158.107849,323.993866 158.484863,324.291901 158.861893,324.589966 
	C158.775864,324.141541 158.689835,323.693115 159.761673,323.016388 
	C161.723297,323.061066 163.684906,323.105743 165.575119,324.005920 
	C167.449188,324.336884 169.323029,324.955597 171.197357,324.957123 
	C235.682053,325.008972 300.166779,325.002533 364.651489,325.004028 
	C365.651245,325.004028 366.858521,325.353668 367.604584,324.917297 
	C368.886078,324.167725 370.790222,322.977875 370.852356,321.883087 
	C371.426331,311.775360 371.756958,301.649353 371.864441,291.525574 
	C371.876862,290.357391 370.099213,289.170197 368.786713,287.241211 
	C366.944824,286.825287 365.103455,286.048584 363.261017,286.046112 
	C314.648834,285.980835 266.036560,285.982300 217.424286,286.001312 
	C185.629288,286.013733 153.834335,286.071442 121.481941,285.479095 
	C118.536148,285.325562 115.573563,284.940552 112.654259,285.152222 
	C111.715469,285.220337 110.141800,286.850555 110.127838,287.785065 
	C109.957497,299.187500 109.954735,310.594543 110.130852,321.996948 
	C110.149414,323.198639 111.582039,324.378448 112.358627,325.568451 
	C113.574181,324.771484 114.789734,323.974548 116.928886,323.011810 
	C130.740768,323.088043 144.552643,323.164276 157.730820,323.695801 
M160.457703,460.961823 
	C162.193588,461.641022 163.912354,462.849579 165.668350,462.906342 
	C172.660095,463.132233 179.666534,463.127594 186.661560,462.959503 
	C192.584976,462.817200 198.501587,462.041351 204.418625,462.070679 
	C212.128372,462.108887 219.834534,462.922668 227.544037,462.953064 
	C256.542023,463.067474 285.541168,462.920685 314.538757,463.079346 
	C319.186096,463.104767 321.718262,462.452209 322.709045,456.976685 
	C324.940399,444.645142 328.316650,432.525726 330.963440,420.263123 
	C334.939880,401.840149 338.679749,383.366180 342.543213,364.918732 
	C343.823730,358.804474 345.175110,352.705048 346.573151,346.232849 
	C344.646912,346.126343 343.516876,346.009338 342.386810,346.009186 
	C274.890411,346.000580 207.393829,346.066162 139.897980,345.873505 
	C134.752441,345.858826 135.422409,348.395752 136.072525,351.354309 
	C139.316635,366.117432 142.734909,380.842316 145.981033,395.605011 
	C150.715485,417.136383 155.355331,438.688568 160.457703,460.961823 
M74.410690,31.482800 
	C74.410690,31.482800 74.522247,31.416380 74.410690,31.482800 
z"/>
<path fill="#F0F1F3" opacity="1.000000" stroke="none" 
	d="
M347.000854,264.000000 
	C345.446899,264.332520 343.893494,264.951965 342.338867,264.955078 
	C312.979889,265.014069 283.620728,265.014252 254.261871,264.927673 
	C253.452682,264.925293 251.030304,266.437897 251.887772,263.159729 
	C283.396606,262.922394 314.739777,262.954498 346.540771,263.280365 
	C346.998566,263.574097 347.000854,264.000000 347.000854,264.000000 
z"/>
<path fill="#F4F4F5" opacity="1.000000" stroke="none" 
	d="
M90.105370,286.453064 
	C90.794106,286.999054 91.910896,288.002808 91.919144,289.015656 
	C92.029808,302.599609 92.001640,316.184937 91.933662,329.769501 
	C91.930229,330.454834 91.251007,331.136780 90.526382,331.914001 
	C90.116913,316.976837 90.067497,301.945953 90.105370,286.453064 
z"/>
<path fill="#F6F8FA" opacity="1.000000" stroke="none" 
	d="
M436.000977,124.345810 
	C436.731506,124.473335 437.863892,125.162621 437.776306,125.397858 
	C434.918915,133.074783 431.955902,140.712646 428.945679,148.331451 
	C428.821106,148.646790 428.091217,148.722977 427.280365,148.930420 
	C429.404633,141.995743 431.882080,135.037674 434.388702,128.090103 
	C434.805389,126.935204 435.349091,125.826134 436.000977,124.345810 
z"/>
<path fill="#F3F3F5" opacity="1.000000" stroke="none" 
	d="
M106.754814,73.620865 
	C103.272331,74.329514 99.138176,73.604698 96.298187,75.193382 
	C90.909882,78.207603 90.393776,82.535255 93.133759,88.333595 
	C93.493736,89.095360 93.377258,90.082268 93.181061,91.001282 
	C88.426254,86.157951 88.157501,81.732140 91.977814,76.169250 
	C94.819290,72.031677 100.943359,70.808815 106.754814,73.620865 
z"/>
<path fill="#EFEFEF" opacity="1.000000" stroke="none" 
	d="
M241.173706,145.206848 
	C240.567139,143.147461 240.012909,140.879593 240.068542,138.626801 
	C240.247147,131.394135 240.651154,124.167046 241.175217,116.467178 
	C241.382248,115.996567 241.809433,115.995949 241.809433,115.995949 
	C242.207291,117.020699 242.988586,118.062935 242.942764,119.067451 
	C242.548233,127.717247 242.004471,136.360245 241.173706,145.206848 
z"/>
<path fill="#F3F3F4" opacity="1.000000" stroke="none" 
	d="
M274.601440,133.052902 
	C273.390808,137.722855 271.946045,142.572433 270.254150,147.334183 
	C269.331909,149.929825 267.990509,152.376541 266.515045,154.950134 
	C268.882721,147.738556 271.573486,140.467224 274.601440,133.052902 
z"/>
<path fill="#F6F6F6" opacity="1.000000" stroke="none" 
	d="
M220.096527,121.446976 
	C220.786987,122.983871 222.005539,125.016830 221.873550,126.957939 
	C221.580658,131.265106 220.610443,135.526199 219.545074,139.906555 
	C219.453125,133.971802 219.732483,127.936577 220.096527,121.446976 
z"/>
<path fill="#F0F0F2" opacity="1.000000" stroke="none" 
	d="
M126.997353,202.011597 
	C132.936768,203.038361 138.876190,204.065125 144.913605,205.455444 
	C139.126266,205.150330 133.240967,204.481659 127.169464,203.184296 
	C126.987961,202.374252 126.992653,202.192917 126.997353,202.011597 
z"/>
<path fill="#F3F3F4" opacity="1.000000" stroke="none" 
	d="
M349.416138,235.902023 
	C352.988159,231.647339 357.167419,230.812332 362.905090,233.431061 
	C358.620789,234.532745 354.231354,235.260345 349.416138,235.902023 
z"/>
<path fill="#F6F6F8" opacity="1.000000" stroke="none" 
	d="
M221.982773,201.478729 
	C222.611694,201.059448 223.790359,200.857910 223.834488,201.002563 
	C225.425858,206.217880 226.911423,211.465485 228.154404,216.874741 
	C225.932602,211.979889 223.968048,206.918884 221.982773,201.478729 
z"/>
<path fill="#F2F2F3" opacity="1.000000" stroke="none" 
	d="
M235.893372,89.631927 
	C234.435364,87.832458 232.892502,85.741974 231.744995,83.453285 
	C230.331421,80.633926 229.247177,77.649460 228.037903,74.326462 
	C230.698105,79.028725 233.340988,84.140869 235.893372,89.631927 
z"/>
<path fill="#F4F4F5" opacity="1.000000" stroke="none" 
	d="
M194.425873,200.042877 
	C194.387329,199.007477 194.538361,197.824219 195.096664,196.882431 
	C197.106857,193.491394 198.247757,190.187012 195.441986,186.609344 
	C195.066269,186.130249 195.425552,185.074753 195.666351,183.950455 
	C200.653305,190.663681 200.477798,193.312866 194.425873,200.042877 
z"/>
<path fill="#F4F4F5" opacity="1.000000" stroke="none" 
	d="
M195.194641,182.812866 
	C194.456818,183.287094 193.259064,183.927933 192.663788,183.569168 
	C189.237747,181.504288 186.021667,181.270844 182.529068,183.500397 
	C181.825668,183.949417 180.302994,183.115005 179.074982,182.524277 
	C184.384293,179.849960 189.753403,178.615219 195.194641,182.812866 
z"/>
<path fill="#F6F8FA" opacity="1.000000" stroke="none" 
	d="
M423.619446,155.067673 
	C423.456879,160.604401 421.900970,165.733917 416.299408,168.958099 
	C418.372650,164.368271 420.830231,159.789078 423.619446,155.067673 
z"/>
<path fill="#F7F7F7" opacity="1.000000" stroke="none" 
	d="
M167.425613,205.901398 
	C171.333115,203.543198 175.585098,200.825836 180.911377,203.460266 
	C176.622574,204.543320 172.240067,205.265366 167.425613,205.901398 
z"/>
<path fill="#F4F4F6" opacity="1.000000" stroke="none" 
	d="
M211.040527,147.615173 
	C207.413925,144.515671 203.742920,141.064255 200.053131,137.261993 
	C203.688263,140.361862 207.342178,143.812546 211.040527,147.615173 
z"/>
<path fill="#F2F2F3" opacity="1.000000" stroke="none" 
	d="
M252.033539,252.484848 
	C251.618912,247.261444 250.708405,241.559631 255.734192,237.095871 
	C254.820480,242.098206 253.546127,247.136169 252.033539,252.484848 
z"/>
<path fill="#F7F6F8" opacity="1.000000" stroke="none" 
	d="
M356.002441,137.010590 
	C351.511871,138.745453 347.021271,140.480331 342.209229,142.081390 
	C346.338409,139.968933 350.789124,137.990280 355.619232,136.300262 
	C355.998657,136.588898 356.002441,137.010590 356.002441,137.010590 
z"/>
<path fill="#F0F0F2" opacity="1.000000" stroke="none" 
	d="
M147.176788,206.474365 
	C151.469254,205.880493 155.970016,205.667145 160.750534,205.766724 
	C156.481873,206.338043 151.933487,206.596451 147.176788,206.474365 
z"/>
<path fill="#F3F3F4" opacity="1.000000" stroke="none" 
	d="
M265.529083,157.136520 
	C266.643921,161.477921 267.022247,165.935257 263.545349,169.930359 
	C263.850342,165.776642 264.508362,161.543457 265.529083,157.136520 
z"/>
<path fill="#EFF0F2" opacity="1.000000" stroke="none" 
	d="
M387.219360,132.906158 
	C383.421844,132.294693 379.443268,131.406097 375.213135,130.208542 
	C379.641846,127.912682 383.708435,128.641052 387.219360,132.906158 
z"/>
<path fill="#F6F8FA" opacity="1.000000" stroke="none" 
	d="
M129.899338,85.550964 
	C128.337143,85.574783 126.466217,85.611397 124.962807,84.886162 
	C122.552246,83.723320 120.385063,82.055962 118.077576,80.248184 
	C121.945274,81.670334 125.850403,83.446106 129.899338,85.550964 
z"/>
<path fill="#EFF0F2" opacity="1.000000" stroke="none" 
	d="
M387.401917,147.912003 
	C387.159821,143.480072 387.272400,138.897446 387.598663,133.951157 
	C391.099640,138.325104 390.741180,143.048370 387.401917,147.912003 
z"/>
<path fill="#EFF0F2" opacity="1.000000" stroke="none" 
	d="
M372.631714,130.106873 
	C368.800659,131.953949 364.588318,133.711227 360.167633,135.180969 
	C364.056335,133.267960 368.153412,131.642517 372.631714,130.106873 
z"/>
<path fill="#F2F2F3" opacity="1.000000" stroke="none" 
	d="
M289.644531,168.952606 
	C288.291870,171.122711 286.623077,173.344543 284.954315,175.566360 
	C284.348633,175.171814 283.742981,174.777267 283.137299,174.382721 
	C283.805206,172.919662 284.473114,171.456619 285.510895,169.847778 
	C287.029999,169.469406 288.179199,169.236847 289.644531,168.952606 
z"/>
<path fill="#EFEFEF" opacity="1.000000" stroke="none" 
	d="
M126.669373,201.838013 
	C126.992653,202.192917 126.987961,202.374252 126.970261,202.827316 
	C123.057137,202.001328 119.157036,200.903610 115.111481,199.457672 
	C118.757820,199.961121 122.549599,200.812790 126.669373,201.838013 
z"/>
<path fill="#F3F3F4" opacity="1.000000" stroke="none" 
	d="
M317.147491,234.481247 
	C320.910553,234.431244 324.859619,234.751480 328.909393,235.438965 
	C325.117920,235.487976 321.225677,235.169724 317.147491,234.481247 
z"/>
<path fill="#F4F4F5" opacity="1.000000" stroke="none" 
	d="
M90.498947,271.168640 
	C90.895630,274.574188 90.916092,278.187378 90.563812,281.904663 
	C90.168289,278.464630 90.145508,274.920441 90.498947,271.168640 
z"/>
<path fill="#F6F6F6" opacity="1.000000" stroke="none" 
	d="
M285.661072,115.980835 
	C286.123779,120.629379 283.264435,123.519699 279.262390,125.926628 
	C281.048126,122.666443 283.189728,119.391602 285.661072,115.980835 
z"/>
<path fill="#F6F6F6" opacity="1.000000" stroke="none" 
	d="
M59.887604,107.632881 
	C56.296715,105.406746 54.825523,101.864983 55.006706,97.234558 
	C56.686466,100.348686 58.330959,103.803123 59.887604,107.632881 
z"/>
<path fill="#F3F3F5" opacity="1.000000" stroke="none" 
	d="
M241.892120,115.570526 
	C241.809433,115.995949 241.382248,115.996567 241.168182,115.998817 
	C240.469940,112.484200 239.985764,108.967323 239.803452,105.204453 
	C240.728470,108.354004 241.351639,111.749550 241.892120,115.570526 
z"/>
<path fill="#F3F3F5" opacity="1.000000" stroke="none" 
	d="
M244.054962,195.578796 
	C242.409714,192.548325 240.716461,189.137360 239.039612,185.321228 
	C240.706314,188.343491 242.356628,191.770905 244.054962,195.578796 
z"/>
<path fill="#F2F2F3" opacity="1.000000" stroke="none" 
	d="
M286.032379,168.487976 
	C284.402100,164.472061 285.460602,160.638458 288.475403,157.060150 
	C287.963379,160.718994 287.116119,164.448288 286.032379,168.487976 
z"/>
<path fill="#F6F6F8" opacity="1.000000" stroke="none" 
	d="
M98.535255,26.942616 
	C97.285553,31.436001 94.477814,30.834538 91.133408,28.236961 
	C93.343788,27.597441 95.726212,27.295658 98.535255,26.942616 
z"/>
<path fill="#F4F4F6" opacity="1.000000" stroke="none" 
	d="
M216.571899,150.072662 
	C217.245422,151.463272 217.608963,152.968491 217.972504,154.473709 
	C217.399536,154.769287 216.826569,155.064865 216.253601,155.360428 
	C214.843109,153.461777 213.432617,151.563126 212.028198,149.288544 
	C213.443497,149.337509 214.852692,149.762390 216.571899,150.072662 
z"/>
<path fill="#F5F5FA" opacity="1.000000" stroke="none" 
	d="
M447.919830,98.592796 
	C444.100037,97.923622 440.122223,96.897865 436.068237,95.527252 
	C439.915314,96.200340 443.838562,97.218277 447.919830,98.592796 
z"/>
<path fill="#F7F7F7" opacity="1.000000" stroke="none" 
	d="
M69.596146,31.101423 
	C68.013451,35.141521 64.671387,34.078129 61.205467,33.188141 
	C63.697826,32.262024 66.441795,31.637453 69.596146,31.101423 
z"/>
<path fill="#F7F7F7" opacity="1.000000" stroke="none" 
	d="
M182.015808,150.354935 
	C186.130005,150.367218 188.442032,152.865784 189.319046,157.065186 
	C186.781723,155.141403 184.453156,152.907608 182.015808,150.354935 
z"/>
<path fill="#EFF0F2" opacity="1.000000" stroke="none" 
	d="
M378.505310,152.026855 
	C377.957001,151.512436 377.799500,150.982773 377.642029,150.453110 
	C380.514130,149.639954 383.386200,148.826782 386.660522,148.029724 
	C384.340515,149.367752 381.618317,150.689697 378.505310,152.026855 
z"/>
<path fill="#EFEFEF" opacity="1.000000" stroke="none" 
	d="
M236.960709,157.998184 
	C237.682205,155.713898 238.403702,153.429611 239.470551,151.065796 
	C239.484955,153.230606 239.153992,155.474960 238.181488,157.870270 
	C237.346863,158.013519 237.153778,158.005844 236.960709,157.998184 
z"/>
<path fill="#F7F7F7" opacity="1.000000" stroke="none" 
	d="
M189.788086,158.152557 
	C193.452042,156.943161 194.278656,159.587173 194.996094,162.744537 
	C193.310745,161.556335 191.627075,159.983902 189.788086,158.152557 
z"/>
<path fill="#F5F5FA" opacity="1.000000" stroke="none" 
	d="
M454.886658,101.576172 
	C452.728943,101.146408 450.422455,100.384491 448.082397,99.270508 
	C450.278503,99.693626 452.508179,100.468811 454.886658,101.576172 
z"/>
<path fill="#F3F3F5" opacity="1.000000" stroke="none" 
	d="
M236.690384,158.251953 
	C237.153778,158.005844 237.346863,158.013519 237.829590,158.031769 
	C237.324554,160.630203 236.529861,163.218048 235.388596,165.954163 
	C235.501373,163.570175 235.960724,161.037964 236.690384,158.251953 
z"/>
<path fill="#F6F8FA" opacity="1.000000" stroke="none" 
	d="
M415.620453,169.043076 
	C414.839844,170.916565 413.734009,172.916000 412.263855,174.938599 
	C413.031433,173.030869 414.163330,171.099945 415.620453,169.043076 
z"/>
<path fill="#F4F4F5" opacity="1.000000" stroke="none" 
	d="
M188.353821,202.893768 
	C189.754852,201.877487 191.518707,200.947968 193.680420,200.034744 
	C192.291046,201.027542 190.503830,202.004028 188.353821,202.893768 
z"/>
<path fill="#F6F8FA" opacity="1.000000" stroke="none" 
	d="
M426.615631,149.053955 
	C426.195465,150.912048 425.442078,152.903503 424.306091,154.924133 
	C424.709808,153.031296 425.496094,151.109299 426.615631,149.053955 
z"/>
<path fill="#F6F6F8" opacity="1.000000" stroke="none" 
	d="
M51.911186,86.649101 
	C49.025143,86.469330 48.459667,84.830177 49.823135,82.168007 
	C50.736042,83.402016 51.367168,84.846649 51.911186,86.649101 
z"/>
<path fill="#F2F2F3" opacity="1.000000" stroke="none" 
	d="
M228.046936,73.605453 
	C227.148666,72.658157 226.210587,71.371330 225.552643,70.038040 
	C226.557556,71.083023 227.282349,72.174469 228.046936,73.605453 
z"/>
<path fill="#F6F6F8" opacity="1.000000" stroke="none" 
	d="
M52.994083,94.002449 
	C52.525673,92.444115 52.057262,90.885788 51.849854,89.141342 
	C52.741299,90.384293 53.371742,91.813347 53.777061,93.613525 
	C53.365986,93.990578 53.180035,93.996513 52.994083,94.002449 
z"/>
<path fill="#F3F3F4" opacity="1.000000" stroke="none" 
	d="
M370.347412,231.883118 
	C371.548157,231.051712 373.107056,230.310699 374.851746,229.833221 
	C373.593536,230.722336 372.149536,231.347946 370.347412,231.883118 
z"/>
<path fill="#F3F3F5" opacity="1.000000" stroke="none" 
	d="
M233.033829,174.563721 
	C230.141220,174.169510 230.285995,172.824844 232.731415,171.080124 
	C233.056549,172.080124 233.026062,173.126419 233.033829,174.563721 
z"/>
<path fill="#F3F3F4" opacity="1.000000" stroke="none" 
	d="
M364.336060,233.837189 
	C365.213867,233.067642 366.437531,232.312363 367.850769,231.829926 
	C366.920837,232.685684 365.801392,233.268585 364.336060,233.837189 
z"/>
<path fill="#F3F3F5" opacity="1.000000" stroke="none" 
	d="
M239.047241,184.610611 
	C238.465759,183.998459 237.843857,183.052353 237.527252,182.048737 
	C238.223969,182.753036 238.615387,183.514847 239.047241,184.610611 
z"/>
<path fill="#F2F2F3" opacity="1.000000" stroke="none" 
	d="
M289.385132,155.956543 
	C289.392670,154.456436 289.745209,152.813629 290.458069,151.080505 
	C290.455658,152.598068 290.092926,154.205933 289.385132,155.956543 
z"/>
<path fill="#F6F6F6" opacity="1.000000" stroke="none" 
	d="
M219.074448,116.366043 
	C219.365753,116.959167 219.577484,117.924660 219.471268,118.948166 
	C219.100510,118.250267 219.047699,117.494339 219.074448,116.366043 
z"/>
<path fill="#EFEFEF" opacity="1.000000" stroke="none" 
	d="
M240.376129,148.978775 
	C240.127090,148.376328 240.142380,147.715500 240.485992,146.985138 
	C240.756348,147.583862 240.698395,148.252136 240.376129,148.978775 
z"/>
<path fill="#F3F3F4" opacity="1.000000" stroke="none" 
	d="
M333.247253,235.896408 
	C333.647827,235.595474 334.305603,235.383453 335.035095,235.488281 
	C334.572662,235.865204 334.038574,235.925262 333.247253,235.896408 
z"/>
<path fill="#F3F3F4" opacity="1.000000" stroke="none" 
	d="
M275.601715,131.061356 
	C275.769867,131.614243 275.643341,132.264221 275.211639,132.927551 
	C275.039978,132.346756 275.173523,131.752594 275.601715,131.061356 
z"/>
<path fill="#F6F6F6" opacity="1.000000" stroke="none" 
	d="
M53.139450,94.239288 
	C53.180035,93.996513 53.365986,93.990578 53.830772,93.973297 
	C54.391521,94.141335 54.673435,94.320709 54.887962,94.753845 
	C54.308655,94.830444 53.796738,94.653290 53.139450,94.239288 
z"/>
<path fill="#F3F3F4" opacity="1.000000" stroke="none" 
	d="
M344.245117,235.896454 
	C344.159912,235.414017 344.329254,235.014694 344.498566,234.615356 
	C344.656677,234.858719 344.814758,235.102081 344.991150,235.580536 
	C344.839508,235.870270 344.669586,235.924896 344.245117,235.896454 
z"/>
<path fill="#F6F6F8" opacity="1.000000" stroke="none" 
	d="
M87.753799,28.100349 
	C87.836700,28.576778 87.667297,28.977779 87.497894,29.378782 
	C87.342560,29.132097 87.187225,28.885414 87.013031,28.402531 
	C87.163269,28.119196 87.332382,28.072060 87.753799,28.100349 
z"/>
<path fill="#EFF0F2" opacity="1.000000" stroke="none" 
	d="
M356.207092,136.928131 
	C356.002441,137.010590 355.998657,136.588898 355.996521,136.378052 
	C356.163696,136.122025 356.333008,136.076828 356.750549,136.117798 
	C356.875183,136.483795 356.679504,136.697693 356.207092,136.928131 
z"/>
<path fill="#F2F2F3" opacity="1.000000" stroke="none" 
	d="
M257.288574,234.002426 
	C257.053864,233.749695 257.187195,233.479523 257.621887,233.136810 
	C257.726044,233.317734 257.637146,233.624619 257.288574,234.002426 
z"/>
<path fill="#F6F6F6" opacity="1.000000" stroke="none" 
	d="
M278.681183,125.980415 
	C278.918579,126.229576 278.788544,126.502792 278.363007,126.857147 
	C278.254730,126.677071 278.336853,126.365799 278.681183,125.980415 
z"/>
<path fill="#F0F1F3" opacity="1.000000" stroke="none" 
	d="
M380.025574,263.678772 
	C379.907898,263.967194 379.707214,263.979340 379.204895,263.976013 
	C379.249695,263.774506 379.596130,263.588470 380.025574,263.678772 
z"/>
<path fill="#FFFFFF" opacity="1.000000" stroke="none" 
	d="
M347.272217,263.997742 
	C347.000854,264.000000 346.998566,263.574097 347.003784,263.361450 
	C347.320496,263.245972 347.632050,263.343170 348.014587,263.704346 
	C347.904907,263.977356 347.724243,263.986389 347.272217,263.997742 
z"/>
<path fill="#F6F6F6" opacity="1.000000" stroke="none" 
	d="
M218.693665,144.557770 
	C218.729156,144.217148 218.760422,143.928406 218.818863,143.645294 
	C218.828445,143.598923 218.957642,143.577240 219.031555,143.544159 
	C218.984909,143.698547 218.938263,143.852921 218.843903,144.332397 
	C218.796188,144.657486 218.698486,144.611542 218.693665,144.557770 
z"/>
<path fill="#F2F2F3" opacity="1.000000" stroke="none" 
	d="
M256.322449,237.021255 
	C256.078827,236.769455 256.207977,236.495850 256.635803,236.141479 
	C256.746094,236.322327 256.666351,236.635239 256.322449,237.021255 
z"/>
<path fill="#EFEFEF" opacity="1.000000" stroke="none" 
	d="
M240.225098,146.771729 
	C240.144714,146.465012 240.087830,146.130447 240.030960,145.795868 
	C240.099533,145.922989 240.168121,146.050095 240.210938,146.473877 
	C240.185165,146.770554 240.248596,146.743851 240.225098,146.771729 
z"/>
<path fill="#F7F7F7" opacity="1.000000" stroke="none" 
	d="
M179.282623,147.075653 
	C179.606384,146.936081 180.065460,147.016846 180.386993,147.511230 
	C179.972290,147.715240 179.695114,147.505615 179.282623,147.075653 
z"/>
<path fill="#EFEFEF" opacity="1.000000" stroke="none" 
	d="
M109.969627,197.309998 
	C110.230789,197.063217 110.505997,197.199570 110.859756,197.641953 
	C110.676102,197.750015 110.357895,197.665054 109.969627,197.309998 
z"/>
<path fill="#F3F3F5" opacity="1.000000" stroke="none" 
	d="
M234.306915,169.031387 
	C234.066223,168.778992 234.199707,168.502228 234.635147,168.144012 
	C234.742828,168.324829 234.657501,168.639648 234.306915,169.031387 
z"/>
<path fill="#F3F3F5" opacity="1.000000" stroke="none" 
	d="
M234.022919,175.702820 
	C233.815781,175.776169 233.527084,175.592682 233.139404,175.166122 
	C233.340729,175.097366 233.641037,175.271683 234.022919,175.702820 
z"/>
<path fill="none" opacity="1.000000" stroke="none" 
	d="
M160.246613,460.596863 
	C155.355331,438.688568 150.715485,417.136383 145.981033,395.605011 
	C142.734909,380.842316 139.316635,366.117432 136.072525,351.354309 
	C135.422409,348.395752 134.752441,345.858826 139.897980,345.873505 
	C207.393829,346.066162 274.890411,346.000580 342.386810,346.009186 
	C343.516876,346.009338 344.646912,346.126343 346.573151,346.232849 
	C345.175110,352.705048 343.823730,358.804474 342.543213,364.918732 
	C338.679749,383.366180 334.939880,401.840149 330.963440,420.263123 
	C328.316650,432.525726 324.940399,444.645142 322.709045,456.976685 
	C321.718262,462.452209 319.186096,463.104767 314.538757,463.079346 
	C285.541168,462.920685 256.542023,463.067474 227.544037,462.953064 
	C219.834534,462.922668 212.128372,462.108887 204.418625,462.070679 
	C198.501587,462.041351 192.584976,462.817200 186.661560,462.959503 
	C179.666534,463.127594 172.660095,463.132233 165.668350,462.906342 
	C163.912354,462.849579 162.193588,461.641022 160.246613,460.596863 
z"/>
<path fill="none" opacity="1.000000" stroke="none" 
	d="
M165.646530,323.150452 
	C163.684906,323.105743 161.723297,323.061066 159.170776,323.164917 
	C158.579880,323.313446 158.364532,323.240479 158.364532,323.240479 
	C144.552643,323.164276 130.740768,323.088043 116.058006,323.010345 
	C114.462746,322.251892 113.116684,321.502441 113.107399,320.736786 
	C112.971512,309.532715 113.013992,298.326508 113.013992,287.553833 
	C116.431908,287.006622 119.235634,286.557770 122.039352,286.108887 
	C153.834335,286.071442 185.629288,286.013733 217.424286,286.001312 
	C266.036560,285.982300 314.648834,285.980835 363.261017,286.046112 
	C365.103455,286.048584 366.944824,286.825287 368.888489,288.079590 
	C368.990295,300.190063 368.990295,311.462128 368.990295,322.977173 
	C367.020325,322.977173 365.385559,322.977173 363.750793,322.977173 
	C307.192291,322.977173 250.633789,322.969269 194.075287,322.984955 
	C184.599014,322.987610 175.122787,323.092712 165.646530,323.150452 
z"/>
<path fill="#F3F3F5" opacity="1.000000" stroke="none" 
	d="
M165.610825,323.578186 
	C175.122787,323.092712 184.599014,322.987610 194.075287,322.984955 
	C250.633789,322.969269 307.192291,322.977173 363.750793,322.977173 
	C365.385559,322.977173 367.020325,322.977173 368.990295,322.977173 
	C368.990295,311.462128 368.990295,300.190063 369.070923,288.454895 
	C370.099213,289.170197 371.876862,290.357391 371.864441,291.525574 
	C371.756958,301.649353 371.426331,311.775360 370.852356,321.883087 
	C370.790222,322.977875 368.886078,324.167725 367.604584,324.917297 
	C366.858521,325.353668 365.651245,325.004028 364.651489,325.004028 
	C300.166779,325.002533 235.682053,325.008972 171.197357,324.957123 
	C169.323029,324.955597 167.449188,324.336884 165.610825,323.578186 
z"/>
<path fill="#F8F8F9" opacity="1.000000" stroke="none" 
	d="
M121.760651,285.794006 
	C119.235634,286.557770 116.431908,287.006622 113.013992,287.553833 
	C113.013992,298.326508 112.971512,309.532715 113.107399,320.736786 
	C113.116684,321.502441 114.462746,322.251892 115.596207,323.093262 
	C114.789734,323.974548 113.574181,324.771484 112.358627,325.568420 
	C111.582039,324.378448 110.149414,323.198639 110.130852,321.996948 
	C109.954735,310.594543 109.957497,299.187500 110.127838,287.785065 
	C110.141800,286.850555 111.715469,285.220337 112.654259,285.152222 
	C115.573563,284.940552 118.536148,285.325562 121.760651,285.794006 
z"/>
<path fill="#F3F3F5" opacity="1.000000" stroke="none" 
	d="
M158.047668,323.468140 
	C158.364532,323.240479 158.579880,323.313446 158.591843,323.279053 
	C158.689835,323.693115 158.775864,324.141541 158.861893,324.589966 
	C158.484863,324.291901 158.107849,323.993866 158.047668,323.468140 
z"/>
<path fill="#F7F7F7" opacity="1.000000" stroke="none" 
	d="
M74.466469,31.449589 
	C74.522247,31.416380 74.410690,31.482800 74.466469,31.449589 
z"/>
</svg>